<?xml version="1.0" standalone="no"?>
<!DOCTYPE svg PUBLIC "-//W3C//DTD SVG 20010904//EN"
 "http://www.w3.org/TR/2001/REC-SVG-20010904/DTD/svg10.dtd">
<svg version="1.0" xmlns="http://www.w3.org/2000/svg"
 width="30" height="30" viewBox="0 0 512.000000 512.000000"
 preserveAspectRatio="xMidYMid meet">
<metadata>
Created by potrace 1.16, written by Peter Selinger 2001-2019
</metadata>
<g transform="translate(0.000000,512.000000) scale(0.100000,-0.100000)"
fill="#000000" stroke="none">
<path d="M940 4833 c-136 -13 -273 -66 -377 -146 -138 -106 -256 -255 -360
-453 -85 -162 -203 -481 -203 -548 0 -8 14 -23 30 -33 17 -10 41 -33 55 -53
70 -102 95 -227 95 -479 1 -314 52 -672 110 -766 42 -69 143 -94 219 -55 37
19 141 136 141 159 0 6 11 29 25 51 94 149 167 425 220 835 73 568 112 742
211 936 58 112 143 212 235 275 70 47 183 104 208 104 52 0 -59 54 -229 112
-131 44 -290 70 -380 61z"/>
<path d="M4075 4833 c-71 -6 -193 -34 -278 -62 -114 -39 -237 -91 -237 -101 0
-4 21 -15 46 -24 135 -46 295 -177 371 -304 113 -190 168 -398 228 -862 69
-545 114 -731 223 -945 59 -114 133 -210 183 -235 76 -39 177 -14 219 55 58
94 109 452 110 766 0 252 25 377 95 479 14 20 38 43 55 53 16 10 30 25 30 33
0 67 -118 386 -203 548 -104 198 -222 347 -360 453 -133 103 -322 160 -482
146z"/>
<path d="M1620 3251 c-79 -25 -149 -82 -186 -152 -47 -91 -41 -346 10 -433 96
-165 322 -193 455 -56 64 67 81 125 81 288 0 122 -3 142 -24 187 -34 73 -69
110 -138 144 -63 32 -138 40 -198 22z m131 -86 c37 -19 69 -70 69 -109 0 -38
-35 -93 -70 -111 -82 -43 -180 20 -180 116 0 36 6 47 40 81 46 43 88 50 141
23z"/>
<path d="M3323 3239 c-70 -27 -136 -94 -162 -164 -17 -46 -21 -79 -21 -185 0
-154 18 -214 81 -280 132 -136 359 -109 454 54 51 86 59 323 15 423 -62 142
-222 208 -367 152z m167 -75 c85 -51 79 -173 -10 -219 -60 -31 -134 -4 -164
59 -20 43 -20 59 1 103 31 66 112 92 173 57z"/>
<path d="M2480 2179 c-99 -11 -156 -27 -218 -58 -192 -98 -250 -269 -141 -410
56 -71 266 -189 381 -213 81 -17 148 -1 286 68 184 92 261 178 262 290 1 202
-274 358 -570 323z"/>
</g>
</svg>
